<svg width="168" height="168" viewBox="0 0 168 168" fill="none" xmlns="http://www.w3.org/2000/svg">
<path d="M103.693 222.66C100.197 205.379 90.4849 196.471 82.9516 192.043C75.7929 187.834 69.2971 186.811 67.3753 186.593C44.9377 181.889 42.6781 163.368 42.5602 162.207C42.5404 161.909 42.5073 161.709 42.4464 161.413C38.9505 144.131 29.2365 135.223 21.7046 130.796C14.5459 126.587 8.05008 125.564 6.12829 125.346C-16.3093 120.642 -18.5689 102.121 -18.6868 100.96C-18.7067 100.662 -18.7398 100.462 -18.8006 100.166C-22.2965 82.8844 -32.0092 73.9769 -39.5424 69.5491C-47.6042 64.8073 -54.8249 64.1125 -55.6193 64.0488C-59.4065 63.7456 -62.7264 66.5705 -63.0269 70.3603C-63.3287 74.1489 -60.5025 77.4649 -56.7153 77.768C-56.5207 77.7852 -37.1755 79.5932 -32.3529 102.583C-32.1331 104.508 -31.1112 111.002 -26.903 118.159C-22.4736 125.689 -13.5676 135.405 3.71374 138.901C3.98379 138.954 4.25384 138.994 4.52919 139.015C4.72379 139.032 24.069 140.84 28.8916 163.83C29.1114 165.755 30.1333 172.249 34.3415 179.406C35.8876 182.035 37.9806 184.931 40.7856 187.736C46.0118 192.962 53.7145 197.871 64.9609 200.148C65.2587 200.208 65.456 200.241 65.7551 200.262C66.9227 200.381 85.606 202.661 90.2047 225.392C90.9579 229.118 94.5891 231.527 98.3138 230.772C102.039 230.015 104.448 226.385 103.693 222.66L103.693 222.66Z" fill="#3AA1FF"/>
<path d="M131.424 194.927C127.928 177.645 118.215 168.738 110.682 164.31C103.523 160.101 97.0273 159.077 95.1055 158.86C72.6679 154.155 70.4083 135.635 70.2904 134.474C70.2706 134.176 70.2375 133.976 70.1766 133.68C66.6807 116.398 56.9667 107.489 49.4348 103.063C42.2761 98.8534 35.7803 97.8302 33.8585 97.6129C11.4209 92.9083 9.16132 74.3878 9.04342 73.2267C9.02356 72.9289 8.99047 72.729 8.92959 72.4325C5.43371 55.151 -4.27893 46.2435 -11.8122 41.8157C-19.874 37.0739 -27.0947 36.3791 -27.889 36.3154C-31.6763 36.0122 -34.9962 38.8371 -35.2967 42.6269C-35.5985 46.4155 -32.7723 49.7315 -28.9851 50.0346C-28.7905 50.0518 -9.44528 51.8598 -4.62268 74.8497C-4.40291 76.7745 -3.38102 83.2689 0.82719 90.426C5.25662 97.9556 14.1626 107.672 31.444 111.168C31.714 111.221 31.9841 111.26 32.2594 111.282C32.454 111.299 51.7992 113.107 56.6218 136.097C56.8416 138.022 57.8635 144.516 62.0717 151.673C63.6178 154.302 65.7109 157.197 68.5158 160.002C73.742 165.228 81.4448 170.138 92.6911 172.415C92.989 172.475 93.1862 172.508 93.4853 172.529C94.6529 172.648 113.336 174.927 117.935 197.659C118.688 201.385 122.319 203.793 126.044 203.038C129.769 202.281 132.177 198.653 131.424 194.927L131.424 194.927Z" fill="#3AA1FF"/>
<path d="M-1.26224 22.3026C-1.06765 22.3198 18.2776 24.1278 23.1002 47.1177C23.3199 49.0424 24.3418 55.5368 28.55 62.694C32.9795 70.2236 41.8855 79.9397 59.1668 83.4358C59.4369 83.4888 59.7069 83.5285 59.9823 83.5496C60.1769 83.5668 79.5221 85.3748 84.3447 108.365C84.5645 110.29 85.5863 116.784 89.7946 123.941C91.3407 126.57 93.4337 129.465 96.2386 132.27C101.465 137.496 109.168 142.406 120.414 144.683C120.712 144.743 120.909 144.776 121.208 144.797C122.376 144.916 141.059 147.195 145.658 169.927C146.411 173.653 150.042 176.061 153.767 175.306C157.493 174.553 159.901 170.922 159.147 167.197C155.651 149.916 145.938 141.008 138.405 136.58C131.246 132.371 124.75 131.348 122.828 131.131C100.391 126.426 98.1312 107.905 98.0133 106.744C97.9935 106.446 97.9604 106.247 97.8995 105.95C94.4036 88.6686 84.6896 79.7598 77.1577 75.3333C69.999 71.124 63.5032 70.1007 61.5814 69.8834C39.1438 65.1788 36.8842 46.6583 36.7663 45.4973C36.7465 45.1994 36.7134 44.9995 36.6525 44.703C33.1566 27.4215 23.444 18.514 15.9107 14.0862C7.84892 9.34443 0.628211 8.64959 -0.166123 8.58588C-3.95338 8.28272 -7.27331 11.1076 -7.57376 14.8975C-7.87557 18.6834 -5.04941 21.9993 -1.26223 22.3024L-1.26224 22.3026Z" fill="#3AA1FF"/>
</svg>
