<svg width="309" height="315" viewBox="0 0 309 315" fill="none" xmlns="http://www.w3.org/2000/svg">
<path d="M228.854 306.512C219.542 287.781 205.676 280.556 195.684 277.795C186.187 275.169 178.429 275.991 176.16 276.332C149.003 277.831 140.727 257.301 140.235 256.006C140.121 255.671 140.021 255.452 139.861 255.131C130.548 236.4 116.68 229.174 106.69 226.414C97.1937 223.789 89.4355 224.611 87.1665 224.952C60.0091 226.45 51.7327 205.92 51.2411 204.626C51.1269 204.29 51.0276 204.072 50.8668 203.75C41.5541 185.02 27.6886 177.795 17.6961 175.034C7.00157 172.075 -1.4865 173.496 -2.41635 173.667C-6.84951 174.482 -9.78663 178.739 -8.96723 183.174C-8.1498 187.609 -3.89284 190.541 0.540228 189.725C0.768508 189.685 23.4927 185.817 36.0786 210.682C36.9214 212.82 40.0867 219.949 47.1068 226.858C54.4949 234.127 67.6843 242.527 88.5617 241.227C88.8874 241.204 89.2091 241.167 89.5311 241.107C89.7594 241.067 112.484 237.198 125.069 262.063C125.912 264.202 129.078 271.33 136.098 278.24C138.677 280.778 141.964 283.453 146.04 285.806C153.634 290.19 163.968 293.451 177.556 292.607C177.915 292.584 178.151 292.561 178.501 292.494C179.875 292.272 201.986 289.147 214.236 313.784C216.243 317.823 221.144 319.468 225.18 317.459C229.217 315.448 230.863 310.549 228.854 306.512L228.854 306.512Z" fill="#355C7B"/>
<path d="M230.682 225.125C221.37 206.394 207.504 199.169 197.512 196.408C188.015 193.783 180.257 194.604 177.988 194.946C150.831 196.444 142.555 175.914 142.063 174.62C141.949 174.284 141.849 174.065 141.689 173.744C132.376 155.014 118.508 147.787 108.518 145.028C99.0218 142.402 91.2636 143.224 88.9946 143.565C61.8372 145.063 53.5608 124.533 53.0692 123.239C52.955 122.904 52.8557 122.685 52.6949 122.364C43.3823 103.633 29.5167 96.4079 19.5242 93.6469C8.82969 90.6884 0.341624 92.1093 -0.588221 92.2802C-5.02138 93.0957 -7.95851 97.3524 -7.13911 101.788C-6.32168 106.222 -2.06471 109.154 2.36836 108.339C2.59663 108.299 25.3208 104.43 37.9067 129.295C38.7495 131.433 41.9148 138.562 48.9349 145.472C56.323 152.74 69.5124 161.14 90.3898 159.84C90.7155 159.818 91.0371 159.78 91.3592 159.72C91.5875 159.68 114.312 155.812 126.898 180.677C127.74 182.815 130.906 189.943 137.926 196.853C140.505 199.391 143.792 202.066 147.868 204.419C155.462 208.803 165.797 212.065 179.384 211.221C179.743 211.197 179.979 211.175 180.329 211.107C181.703 210.885 203.814 207.76 216.064 232.398C218.071 236.437 222.972 238.081 227.008 236.073C231.045 234.061 232.69 229.163 230.682 225.125L230.682 225.125Z" fill="#355C7B"/>
<path d="M4.19566 26.9536C4.42395 26.9135 27.1495 23.045 39.7362 47.9115C40.5791 50.0498 43.7445 57.1789 50.7651 64.089C58.1536 71.358 71.3439 79.7583 92.2226 78.4581C92.5483 78.4359 92.87 78.3984 93.1921 78.3382C93.4204 78.2981 116.146 74.4296 128.733 99.2961C129.576 101.434 132.741 108.563 139.762 115.474C142.341 118.012 145.629 120.687 149.704 123.04C157.299 127.425 167.634 130.686 181.222 129.842C181.582 129.819 181.818 129.796 182.167 129.729C183.542 129.506 205.654 126.382 217.904 151.02C219.912 155.06 224.813 156.704 228.85 154.696C232.889 152.688 234.534 147.787 232.525 143.75C223.212 125.018 209.345 117.793 199.352 115.032C189.855 112.406 182.097 113.228 179.827 113.569C152.668 115.067 144.391 94.536 143.9 93.2416C143.786 92.9064 143.686 92.6874 143.525 92.3663C134.212 73.6345 120.344 66.4077 110.353 63.6477C100.856 61.0219 93.0973 61.8439 90.8281 62.1851C63.6691 63.6835 55.3922 43.1522 54.9005 41.8578C54.7863 41.5225 54.687 41.3036 54.5262 40.9825C45.213 22.2507 31.3466 15.025 21.3534 12.2639C10.6582 9.30517 2.16963 10.7262 1.23973 10.8971C-3.19371 11.7127 -6.13101 15.9696 -5.31156 20.4052C-4.49487 24.8366 -0.23768 27.7692 4.19566 26.9536Z" fill="#355C7B"/>
</svg>
