<svg width="264" height="238" viewBox="0 0 264 238" fill="none" xmlns="http://www.w3.org/2000/svg">
<path d="M97.1756 76.5013C97.2927 76.5394 97.4097 76.5802 97.4887 76.5802C97.878 76.5802 98.2292 76.3461 98.3871 75.9568C99.2065 73.6945 100.26 71.4295 101.472 69.2435C101.744 68.7752 101.55 68.2281 101.12 67.9558C100.69 67.6835 100.105 67.8387 99.8326 68.307C98.5449 70.5693 97.4914 72.9513 96.593 75.2922C96.4324 75.7986 96.6666 76.3458 97.1756 76.501L97.1756 76.5013Z" fill="#355C7B"/>
<path d="M78.6732 230.348C78.7522 230.348 78.8284 230.348 78.9455 230.31C81.3657 229.607 83.7858 228.905 86.2032 228.124C86.7096 227.968 86.9846 227.421 86.8267 226.953C86.6715 226.447 86.1243 226.212 85.656 226.329C83.2767 227.111 80.8565 227.813 78.4742 228.516C77.9679 228.671 77.6929 229.18 77.81 229.686C77.8944 230.075 78.2456 230.348 78.673 230.348H78.6732Z" fill="#355C7B"/>
<path d="M93.0375 225.741C93.1546 225.741 93.2335 225.741 93.3506 225.703C95.7299 224.845 98.0738 223.947 100.415 223.01C100.884 222.814 101.118 222.27 100.922 221.801C100.726 221.333 100.181 221.099 99.7129 221.295C97.3716 222.232 95.0304 223.13 92.6893 223.988C92.1829 224.184 91.9488 224.69 92.104 225.196C92.2973 225.507 92.6485 225.741 93.0377 225.741H93.0375Z" fill="#355C7B"/>
<path d="M64.0369 233.978H64.2329C66.6912 233.472 69.1495 232.887 71.6106 232.301C72.1169 232.184 72.43 231.678 72.3129 231.169C72.1958 230.662 71.6487 230.349 71.1804 230.466C68.7602 231.052 66.3019 231.637 63.8815 232.143C63.3752 232.26 63.0621 232.767 63.141 233.276C63.2173 233.665 63.6093 233.978 64.0367 233.978H64.0369Z" fill="#355C7B"/>
<path d="M49.1731 236.515H49.2902C51.7893 236.164 54.2857 235.774 56.7849 235.344C57.2913 235.265 57.6425 234.759 57.5662 234.253C57.4873 233.746 57.019 233.395 56.4746 233.471C54.0163 233.901 51.5171 234.291 49.0586 234.604C48.5523 234.683 48.201 235.151 48.2392 235.657C48.3154 236.202 48.7047 236.515 49.1729 236.515H49.1731Z" fill="#355C7B"/>
<path d="M105.254 114.4C106.152 115.22 107.165 116.039 108.18 116.779C108.335 116.897 108.531 116.975 108.727 116.975C109 116.975 109.313 116.858 109.509 116.586C109.822 116.156 109.705 115.571 109.313 115.26C108.338 114.558 107.402 113.818 106.541 113.036C105.605 112.179 104.706 111.28 103.887 110.382C103.536 109.993 102.95 109.952 102.561 110.303C102.172 110.654 102.131 111.24 102.482 111.629C103.302 112.565 104.238 113.502 105.254 114.4L105.254 114.4Z" fill="#355C7B"/>
<path d="M119.736 212.98C119.891 213.293 120.242 213.487 120.555 213.487C120.71 213.487 120.868 213.449 120.985 213.37C123.21 212.161 125.434 210.949 127.582 209.662C128.05 209.389 128.167 208.804 127.933 208.374C127.661 207.906 127.075 207.789 126.645 208.023C124.5 209.311 122.314 210.522 120.09 211.693C119.657 211.968 119.502 212.512 119.736 212.98V212.98Z" fill="#355C7B"/>
<path d="M34.1824 238H34.2205C36.7196 237.845 39.2542 237.649 41.7912 237.415C42.2976 237.376 42.6896 236.908 42.6488 236.399C42.6107 235.893 42.1424 235.463 41.6334 235.542C39.1343 235.776 36.6378 236.01 34.1386 236.127C33.6323 236.165 33.2402 236.595 33.2402 237.142C33.2457 237.608 33.6758 238 34.1822 238H34.1824Z" fill="#355C7B"/>
<path d="M129.103 46.4082C129.182 46.4082 129.258 46.4082 129.337 46.3701C131.757 45.7059 134.177 45.3166 136.557 45.1614C137.063 45.1233 137.455 44.6931 137.455 44.146C137.417 43.6396 136.987 43.2884 136.44 43.2476C133.902 43.4027 131.365 43.8329 128.828 44.5353C128.321 44.6904 128.046 45.1995 128.163 45.7059C128.324 46.136 128.675 46.4083 129.103 46.4083L129.103 46.4082Z" fill="#355C7B"/>
<path d="M122.113 123.14C122.192 123.178 122.268 123.178 122.347 123.178C122.777 123.178 123.166 122.906 123.245 122.476C123.362 121.969 123.049 121.46 122.543 121.343C120.123 120.72 117.781 119.938 115.595 118.923C115.127 118.689 114.542 118.923 114.346 119.391C114.112 119.859 114.346 120.407 114.814 120.641C117.117 121.656 119.578 122.516 122.113 123.14L122.113 123.14Z" fill="#355C7B"/>
<path d="M106.153 219.538C106.308 219.889 106.659 220.085 107.011 220.085C107.128 220.085 107.283 220.047 107.4 220.006C109.703 218.991 112.006 217.899 114.268 216.805C114.737 216.57 114.933 216.023 114.698 215.555C114.464 215.087 113.917 214.891 113.449 215.125C111.187 216.217 108.922 217.27 106.659 218.286C106.153 218.522 105.957 219.07 106.153 219.538V219.538Z" fill="#355C7B"/>
<path d="M189.239 91.9523C189.318 91.9523 189.394 91.9523 189.473 91.9141C189.98 91.7971 190.293 91.2499 190.138 90.7435C189.473 88.2444 188.695 85.8269 187.758 83.4858C187.562 82.9794 187.018 82.7453 186.55 82.9386C186.081 83.1346 185.809 83.679 186.002 84.1473C186.901 86.4096 187.641 88.7917 188.305 91.212C188.42 91.6803 188.812 91.9525 189.239 91.9525L189.239 91.9523Z" fill="#355C7B"/>
<path d="M182.961 77.4006C183.116 77.7137 183.467 77.907 183.78 77.907C183.936 77.907 184.093 77.8688 184.21 77.7899C184.679 77.5558 184.834 76.9705 184.6 76.5022C183.429 74.2399 182.101 72.013 180.696 69.9468C180.383 69.5166 179.797 69.3996 179.37 69.7127C178.94 70.0257 178.823 70.6111 179.136 71.0384C180.503 73.0693 181.79 75.2145 182.961 77.4006L182.961 77.4006Z" fill="#355C7B"/>
<path d="M158.763 120.993C158.88 121.423 159.269 121.695 159.661 121.695C159.74 121.695 159.816 121.695 159.895 121.657C162.275 121.072 164.736 120.408 167.232 119.667C167.738 119.512 168.013 119.003 167.855 118.497C167.7 117.99 167.191 117.715 166.685 117.873C164.226 118.614 161.806 119.24 159.465 119.825C158.959 119.98 158.646 120.487 158.763 120.993H158.763Z" fill="#355C7B"/>
<path d="M95.0651 98.0854C95.7294 100.584 96.704 103.002 97.9535 105.267C98.1087 105.58 98.4599 105.774 98.773 105.774C98.9282 105.774 99.0861 105.735 99.2412 105.656C99.7095 105.422 99.8647 104.837 99.6305 104.369C98.4599 102.224 97.5615 99.9586 96.9381 97.5792C96.821 97.0729 96.3147 96.7979 95.7675 96.915C95.223 97.0701 94.9099 97.5792 95.0651 98.0856L95.0651 98.0854Z" fill="#355C7B"/>
<path d="M137.297 122.903H136.44C134.178 122.903 131.992 122.786 129.884 122.59C129.337 122.511 128.91 122.903 128.831 123.447C128.793 123.954 129.144 124.422 129.689 124.501C131.875 124.735 134.137 124.852 136.44 124.852H137.298C137.804 124.852 138.234 124.422 138.234 123.915C138.234 123.333 137.804 122.903 137.298 122.903L137.297 122.903Z" fill="#355C7B"/>
<path d="M189.866 98.5102C190.256 100.93 190.531 103.389 190.724 105.926C190.762 106.433 191.154 106.825 191.661 106.825H191.74C192.246 106.786 192.638 106.356 192.597 105.809C192.442 103.234 192.129 100.697 191.74 98.2385C191.661 97.7321 191.192 97.3809 190.648 97.4572C190.139 97.5361 189.788 98.0044 189.867 98.5107L189.866 98.5102Z" fill="#355C7B"/>
<path d="M174.605 65.1491C174.801 65.3832 175.073 65.4621 175.307 65.4621C175.541 65.4621 175.737 65.3832 175.93 65.228C176.32 64.8768 176.361 64.2915 176.047 63.9023C174.409 61.9911 172.612 60.1563 170.739 58.4004C170.35 58.0492 169.764 58.0873 169.413 58.4385C169.062 58.7897 169.1 59.4131 169.451 59.7643C171.289 61.4793 173.004 63.2734 174.605 65.1491L174.605 65.1491Z" fill="#355C7B"/>
<path d="M94.9121 91.3318C95.4593 91.3318 95.8486 90.9016 95.8486 90.3572V89.4588C95.8486 87.3517 96.0446 85.2037 96.4339 83.0585C96.5129 82.5522 96.1998 82.0431 95.6526 81.9668C95.1462 81.8498 94.6372 82.201 94.5609 82.7482C94.1716 85.0105 93.9375 87.2755 93.9375 89.4996V90.4362C93.9756 90.9425 94.4058 91.3318 94.9121 91.3318V91.3318Z" fill="#355C7B"/>
<path d="M104.821 63.4272C105.093 63.4272 105.368 63.3102 105.561 63.076C107.083 61.1241 108.722 59.2511 110.478 57.5333C110.867 57.1821 110.867 56.5587 110.516 56.2076C110.165 55.8183 109.58 55.8183 109.19 56.1695C107.356 57.9254 105.638 59.8773 104.078 61.9055C103.765 62.3356 103.844 62.9209 104.233 63.2312C104.394 63.3891 104.587 63.4273 104.821 63.4273L104.821 63.4272Z" fill="#355C7B"/>
<path d="M115.597 52.9662C115.793 52.9662 115.986 52.8872 116.144 52.7701C118.172 51.3273 120.32 50.0369 122.465 48.9833C122.934 48.7492 123.13 48.202 122.895 47.7337C122.661 47.2655 122.114 47.0695 121.646 47.3036C119.384 48.3953 117.157 49.7238 115.05 51.2456C114.619 51.5586 114.543 52.144 114.815 52.5713C115.011 52.849 115.325 52.9661 115.597 52.9661V52.9662Z" fill="#355C7B"/>
<path d="M163.719 55.0782C163.874 55.1952 164.07 55.2742 164.266 55.2742C164.538 55.2742 164.851 55.1571 165.006 54.8849C165.319 54.4548 165.24 53.8695 164.81 53.5591C162.782 52.0755 160.634 50.6707 158.41 49.383C157.98 49.1108 157.395 49.266 157.122 49.7342C156.85 50.1643 157.005 50.7496 157.473 51.0219C159.66 52.2688 161.726 53.6354 163.719 55.0782L163.719 55.0782Z" fill="#355C7B"/>
<path d="M227.494 89.6942C227.69 89.6942 227.883 89.6561 228.041 89.539C230.11 88.0962 232.138 86.6125 234.169 85.0907C234.599 84.7776 234.675 84.1923 234.365 83.7649C234.052 83.3348 233.467 83.2586 233.039 83.5689C231.011 85.0526 228.98 86.5363 226.952 87.9791C226.522 88.2922 226.405 88.8775 226.718 89.3049C226.909 89.5771 227.219 89.6942 227.494 89.6942L227.494 89.6942Z" fill="#355C7B"/>
<path d="M239.593 80.7175C239.789 80.7175 240.023 80.6385 240.178 80.5214C242.168 78.9615 244.12 77.3608 246.072 75.7601C246.461 75.447 246.54 74.8235 246.189 74.4343C245.876 74.045 245.253 73.9661 244.863 74.3172C242.952 75.918 241 77.5188 239.01 79.0405C238.621 79.3536 238.542 79.9389 238.855 80.3663C239.046 80.6004 239.318 80.7175 239.593 80.7175H239.593Z" fill="#355C7B"/>
<path d="M214.886 97.9668C215.042 97.9668 215.238 97.9286 215.393 97.8497C217.538 96.5239 219.686 95.1954 221.793 93.7907C222.223 93.5184 222.34 92.9331 222.065 92.4649C221.793 92.0348 221.208 91.9177 220.778 92.1927C218.671 93.5593 216.563 94.9259 214.456 96.2136C214.026 96.4858 213.871 97.0711 214.143 97.5013C214.263 97.8116 214.573 97.9668 214.886 97.9668L214.886 97.9668Z" fill="#355C7B"/>
<path d="M201.77 105.382C201.925 105.382 202.083 105.344 202.2 105.265C204.424 104.094 206.648 102.886 208.835 101.636C209.303 101.364 209.458 100.817 209.186 100.348C208.913 99.8802 208.366 99.725 207.898 99.9973C205.712 101.247 203.526 102.417 201.302 103.588C200.834 103.822 200.678 104.407 200.912 104.876C201.106 105.227 201.419 105.382 201.77 105.382L201.77 105.382Z" fill="#355C7B"/>
<path d="M251.176 71.0377C251.41 71.0377 251.606 70.9587 251.799 70.8036C253.71 69.1266 255.545 67.4469 257.418 65.7291C257.807 65.3779 257.807 64.7926 257.456 64.4034C257.105 64.0141 256.519 64.0141 256.13 64.3653C254.295 66.083 252.422 67.76 250.549 69.3989C250.16 69.7501 250.119 70.3355 250.47 70.7247C250.631 70.9207 250.903 71.0378 251.176 71.0378L251.176 71.0377Z" fill="#355C7B"/>
<path d="M187.799 110.107C187.33 110.303 187.096 110.889 187.292 111.357C187.447 111.708 187.799 111.942 188.15 111.942C188.267 111.942 188.422 111.904 188.539 111.863C189.944 111.24 191.272 110.654 192.56 110.028C193.496 109.598 194.471 109.13 195.41 108.703C195.878 108.468 196.074 107.921 195.84 107.453C195.606 106.985 195.059 106.789 194.591 107.023C193.654 107.491 192.718 107.921 191.781 108.349C190.529 108.896 189.165 109.522 187.799 110.107L187.799 110.107Z" fill="#355C7B"/>
<path d="M262.229 60.7719C262.463 60.7719 262.697 60.693 262.893 60.4997C264.687 58.7438 266.484 56.947 268.24 55.1529C268.591 54.7636 268.591 54.1783 268.202 53.8272C267.851 53.476 267.227 53.476 266.876 53.8653C265.12 55.6593 263.364 57.456 261.567 59.1739C261.178 59.5251 261.178 60.1485 261.567 60.4997C261.72 60.6929 261.954 60.7719 262.229 60.7719L262.229 60.7719Z" fill="#355C7B"/>
<path d="M146.469 196.902C148.498 195.342 150.49 193.701 152.363 192.141C152.753 191.79 152.793 191.204 152.48 190.815C152.129 190.426 151.544 190.385 151.155 190.698C149.32 192.258 147.33 193.859 145.34 195.421C144.909 195.734 144.871 196.32 145.184 196.747C145.38 196.981 145.653 197.098 145.925 197.098C146.08 197.098 146.314 197.057 146.469 196.902H146.469Z" fill="#355C7B"/>
<path d="M144.714 122.478C144.208 122.516 143.816 122.984 143.856 123.532C143.895 124 144.325 124.389 144.793 124.389H144.872C147.292 124.155 149.829 123.766 152.405 123.336C152.911 123.257 153.263 122.75 153.186 122.244C153.107 121.738 152.601 121.386 152.095 121.463C149.593 121.855 147.094 122.206 144.714 122.478H144.714Z" fill="#355C7B"/>
<path d="M157.398 187.34C157.632 187.34 157.866 187.261 158.062 187.068C159.935 185.312 161.732 183.556 163.488 181.759C163.839 181.37 163.839 180.785 163.45 180.434C163.061 180.082 162.475 180.082 162.124 180.472C160.406 182.228 158.612 184.024 156.777 185.739C156.388 186.091 156.388 186.676 156.739 187.065C156.892 187.223 157.126 187.34 157.398 187.34H157.398Z" fill="#355C7B"/>
<path d="M143.89 45.5511C146.27 45.9404 148.652 46.6428 150.914 47.5793C151.031 47.6174 151.148 47.6583 151.265 47.6583C151.616 47.6583 151.968 47.4241 152.123 47.073C152.319 46.6047 152.085 46.0575 151.616 45.8234C149.196 44.808 146.7 44.1056 144.2 43.6782C143.694 43.5611 143.185 43.9504 143.109 44.4595C143.03 45.004 143.381 45.4722 143.89 45.5511L143.89 45.5511Z" fill="#355C7B"/>
<path d="M132.767 205.412C132.963 205.684 133.236 205.842 133.549 205.842C133.745 205.842 133.9 205.804 134.055 205.687C136.2 204.32 138.31 202.877 140.338 201.431C140.768 201.118 140.844 200.533 140.572 200.106C140.259 199.676 139.674 199.599 139.246 199.872C137.218 201.276 135.149 202.722 133.042 204.086C132.612 204.358 132.495 204.943 132.767 205.412H132.767Z" fill="#355C7B"/>
<path d="M171.761 169.074C170.277 171.102 168.717 173.095 167.117 174.927C166.765 175.316 166.844 175.901 167.234 176.253C167.43 176.408 167.623 176.487 167.857 176.487C168.129 176.487 168.404 176.37 168.559 176.174C170.16 174.301 171.761 172.27 173.283 170.203C173.596 169.773 173.479 169.188 173.087 168.878C172.657 168.567 172.071 168.646 171.761 169.074L171.761 169.074Z" fill="#355C7B"/>
<path d="M179.601 156.39C178.43 158.614 177.222 160.8 175.893 162.869C175.621 163.299 175.776 163.885 176.206 164.157C176.362 164.236 176.519 164.312 176.713 164.312C177.026 164.312 177.336 164.157 177.532 163.844C178.858 161.699 180.107 159.472 181.278 157.248C181.512 156.779 181.357 156.232 180.889 155.96C180.421 155.726 179.835 155.922 179.601 156.39V156.39Z" fill="#355C7B"/>
<path d="M189.359 128.214C188.929 130.634 188.344 133.092 187.72 135.513C187.603 136.019 187.875 136.528 188.385 136.683C188.464 136.721 188.54 136.721 188.619 136.721C189.049 136.721 189.4 136.449 189.517 136.019C190.181 133.561 190.726 131.062 191.194 128.603C191.273 128.097 190.96 127.588 190.454 127.511C189.906 127.353 189.438 127.705 189.359 128.214L189.359 128.214Z" fill="#355C7B"/>
<path d="M191.86 112.449C191.313 112.449 190.923 112.838 190.885 113.386C190.847 115.844 190.689 118.381 190.417 120.839C190.379 121.345 190.73 121.814 191.274 121.893H191.392C191.86 121.893 192.29 121.541 192.328 121.035C192.6 118.498 192.758 115.961 192.796 113.423C192.796 112.917 192.366 112.449 191.86 112.449L191.86 112.449Z" fill="#355C7B"/>
<path d="M183.31 150.85C183.427 150.888 183.544 150.929 183.699 150.929C184.051 150.929 184.402 150.733 184.557 150.343C185.572 148.04 186.468 145.62 187.328 143.241C187.483 142.735 187.249 142.226 186.743 142.032C186.237 141.877 185.728 142.111 185.534 142.618C184.715 144.959 183.816 147.3 182.842 149.603C182.608 150.109 182.842 150.656 183.31 150.85H183.31Z" fill="#355C7B"/>
<path d="M182.062 113.501C181.866 113.033 181.322 112.799 180.854 112.954C178.591 113.852 176.247 114.71 173.83 115.57C173.324 115.725 173.089 116.272 173.245 116.779C173.362 117.168 173.751 117.402 174.143 117.402C174.26 117.402 174.339 117.402 174.456 117.364C176.914 116.507 179.296 115.608 181.558 114.71C182.024 114.555 182.258 114.008 182.062 113.501H182.062Z" fill="#355C7B"/>
<path d="M15.7268 226.326C17.2867 226.326 31.4536 208.919 31.4536 201.231C31.4536 192.566 24.3889 185.504 15.7268 185.504C7.06403 185.504 0 192.569 0 201.231C0 208.919 14.1671 226.326 15.7268 226.326ZM5.30848 197.602C6.32389 194.442 8.93736 191.825 12.0981 190.813C20.9183 187.962 28.9573 196.042 26.1097 204.824C25.0943 207.985 22.4808 210.601 19.3201 211.614C10.5375 214.462 2.49848 206.422 5.30848 197.602Z" fill="#355C7B"/>
<path d="M15.7261 233.86C13.4638 233.86 11.6289 234.797 11.6289 235.929C11.6289 237.062 13.4638 237.998 15.7261 237.998C17.9883 237.998 19.8232 237.062 19.8232 235.929C19.8259 234.797 17.9911 233.86 15.7261 233.86Z" fill="#355C7B"/>
</svg>
