<svg width="78" height="76" viewBox="0 0 78 76" fill="none" xmlns="http://www.w3.org/2000/svg">
<path d="M40.1501 9.25847C40.1984 9.27422 40.2468 9.29109 40.2794 9.29109C40.4403 9.29109 40.5854 9.19436 40.6506 9.03351C40.9892 8.09881 41.4245 7.16298 41.925 6.25977C42.0375 6.0663 41.9576 5.84023 41.7799 5.72773C41.6022 5.61525 41.3604 5.67936 41.2479 5.87283C40.7158 6.80754 40.2805 7.79174 39.9094 8.75893C39.843 8.96814 39.9397 9.19422 40.1501 9.25835L40.1501 9.25847Z" fill="#355C7B"/>
<path d="M32.5045 72.8228C32.5371 72.8228 32.5686 72.8228 32.6169 72.8071C33.6169 72.5169 34.6168 72.2267 35.6156 71.9039C35.8248 71.8398 35.9384 71.6137 35.8732 71.4202C35.8091 71.211 35.583 71.1143 35.3895 71.1626C34.4065 71.4855 33.4065 71.7757 32.4222 72.0658C32.213 72.13 32.0994 72.3403 32.1478 72.5495C32.1827 72.7104 32.3278 72.8228 32.5043 72.8228H32.5045Z" fill="#355C7B"/>
<path d="M38.4407 70.9192C38.489 70.9192 38.5216 70.9192 38.57 70.9035C39.5531 70.5492 40.5215 70.178 41.4889 69.7911C41.6824 69.7101 41.7791 69.4851 41.6982 69.2916C41.6172 69.0982 41.3922 69.0014 41.1987 69.0824C40.2314 69.4694 39.2641 69.8405 38.2968 70.1949C38.0876 70.2758 37.9909 70.4851 38.055 70.6943C38.1348 70.8225 38.2799 70.9192 38.4408 70.9192H38.4407Z" fill="#355C7B"/>
<path d="M26.4591 74.3229H26.5401C27.5558 74.1137 28.5715 73.8719 29.5883 73.6301C29.7976 73.5817 29.9269 73.3725 29.8785 73.1621C29.8302 72.9529 29.6041 72.8236 29.4106 72.872C28.4107 73.1138 27.395 73.3556 26.3949 73.5648C26.1857 73.6132 26.0564 73.8224 26.089 74.0327C26.1205 74.1936 26.2825 74.3229 26.4591 74.3229H26.4591Z" fill="#355C7B"/>
<path d="M20.3167 75.3707H20.3651C21.3977 75.2256 22.4291 75.0648 23.4617 74.887C23.6709 74.8544 23.816 74.6452 23.7845 74.436C23.7519 74.2268 23.5584 74.0817 23.3335 74.1132C22.3178 74.2909 21.2852 74.4518 20.2694 74.5811C20.0602 74.6137 19.9151 74.8072 19.9309 75.0164C19.9624 75.2413 20.1232 75.3707 20.3167 75.3707H20.3167Z" fill="#355C7B"/>
<path d="M43.4864 24.917C43.8576 25.2555 44.276 25.5941 44.6955 25.9C44.7597 25.9484 44.8407 25.981 44.9216 25.981C45.0341 25.981 45.1635 25.9327 45.2445 25.8202C45.3738 25.6425 45.3254 25.4006 45.1635 25.2724C44.7608 24.9822 44.3739 24.6763 44.0184 24.3535C43.6315 23.9991 43.2603 23.628 42.9217 23.2568C42.7766 23.0959 42.5348 23.0791 42.374 23.2242C42.2131 23.3693 42.1963 23.6111 42.3414 23.7719C42.6799 24.1589 43.0668 24.5458 43.4864 24.917L43.4864 24.917Z" fill="#355C7B"/>
<path d="M49.4705 65.6469C49.5346 65.7763 49.6797 65.8561 49.8091 65.8561C49.8732 65.8561 49.9384 65.8404 49.9868 65.8078C50.9058 65.3084 51.8247 64.8078 52.7122 64.2758C52.9056 64.1633 52.954 63.9215 52.8573 63.7438C52.7448 63.5503 52.5029 63.5019 52.3252 63.5987C51.4389 64.1307 50.5357 64.6312 49.6167 65.1149C49.4379 65.2285 49.3738 65.4534 49.4705 65.6469V65.6469Z" fill="#355C7B"/>
<path d="M14.1237 75.9844H14.1394C15.172 75.9203 16.2192 75.8393 17.2674 75.7426C17.4766 75.7268 17.6386 75.5334 17.6217 75.323C17.606 75.1138 17.4125 74.9361 17.2022 74.9687C16.1696 75.0655 15.1381 75.1622 14.1056 75.2106C13.8964 75.2263 13.7344 75.404 13.7344 75.6301C13.7366 75.8224 13.9143 75.9844 14.1236 75.9844H14.1237Z" fill="#355C7B"/>
<path d="M50.454 28.5278C50.4867 28.5436 50.5181 28.5436 50.5508 28.5436C50.7285 28.5436 50.8893 28.4311 50.922 28.2534C50.9703 28.0442 50.841 27.8338 50.6318 27.7855C49.6318 27.5279 48.6645 27.2051 47.7613 26.7855C47.5678 26.6888 47.326 26.7855 47.245 26.979C47.1482 27.1724 47.245 27.3985 47.4384 27.4953C48.39 27.9148 49.4068 28.2702 50.4541 28.5278L50.454 28.5278Z" fill="#355C7B"/>
<path d="M43.859 68.3564C43.9232 68.5015 44.0683 68.5825 44.2134 68.5825C44.2617 68.5825 44.3258 68.5668 44.3742 68.5499C45.3258 68.1303 46.2774 67.6793 47.2121 67.2271C47.4055 67.1304 47.4865 66.9043 47.3898 66.7108C47.2931 66.5174 47.067 66.4364 46.8735 66.5331C45.9388 66.9841 45.003 67.4194 44.0683 67.839C43.859 67.9369 43.7781 68.1629 43.859 68.3564V68.3564Z" fill="#355C7B"/>
<path d="M78.1876 15.6417C78.2202 15.6417 78.2517 15.6417 78.2843 15.626C78.4935 15.5776 78.6229 15.3515 78.5588 15.1423C78.2843 14.1097 77.9626 13.1109 77.5757 12.1436C77.4947 11.9344 77.2698 11.8377 77.0763 11.9175C76.8828 11.9985 76.7703 12.2235 76.8502 12.4169C77.2214 13.3516 77.5273 14.3359 77.8018 15.3359C77.849 15.5293 78.011 15.6418 78.1876 15.6418L78.1876 15.6417Z" fill="#355C7B"/>
<path d="M75.5949 9.62993C75.659 9.75928 75.8041 9.83914 75.9334 9.83914C75.9976 9.83914 76.0628 9.8234 76.1112 9.79078C76.3046 9.69405 76.3687 9.45221 76.272 9.25874C75.7883 8.32403 75.2394 7.40395 74.659 6.55024C74.5297 6.37252 74.2878 6.32415 74.1113 6.45351C73.9336 6.58286 73.8852 6.8247 74.0145 7.00127C74.5792 7.84038 75.1112 8.72671 75.5949 9.62992L75.5949 9.62993Z" fill="#355C7B"/>
<path d="M65.5961 27.6409C65.6444 27.8186 65.8053 27.9311 65.9672 27.9311C65.9999 27.9311 66.0314 27.9311 66.064 27.9154C67.0471 27.6735 68.0639 27.3991 69.0952 27.0931C69.3044 27.029 69.418 26.8187 69.3528 26.6095C69.2887 26.4002 69.0783 26.2866 68.8691 26.3519C67.8534 26.6578 66.8535 26.9165 65.8863 27.1584C65.6771 27.2225 65.5477 27.4317 65.5961 27.6409H65.5961Z" fill="#355C7B"/>
<path d="M39.2781 18.1758C39.5526 19.2084 39.9553 20.2072 40.4715 21.1431C40.5357 21.2725 40.6808 21.3523 40.8101 21.3523C40.8742 21.3523 40.9395 21.3366 41.0036 21.304C41.197 21.2072 41.2612 20.9654 41.1644 20.7719C40.6808 19.8856 40.3096 18.9498 40.052 17.9667C40.0036 17.7575 39.7944 17.6438 39.5683 17.6922C39.3434 17.7563 39.214 17.9667 39.2781 18.1759L39.2781 18.1758Z" fill="#355C7B"/>
<path d="M56.7275 28.4299H56.3732C55.4385 28.4299 54.5353 28.3816 53.6647 28.3006C53.4386 28.2679 53.2621 28.4299 53.2294 28.6549C53.2137 28.8641 53.3588 29.0576 53.5838 29.0902C54.487 29.1869 55.4217 29.2353 56.3733 29.2353H56.7276C56.9368 29.2353 57.1145 29.0576 57.1145 28.8483C57.1145 28.6076 56.9368 28.4299 56.7275 28.4299Z" fill="#355C7B"/>
<path d="M72.1408 4.56784C72.2218 4.66458 72.3343 4.69719 72.431 4.69719C72.5277 4.69719 72.6087 4.66458 72.6886 4.60046C72.8494 4.45536 72.8663 4.21352 72.7369 4.0527C72.0598 3.26309 71.3174 2.50498 70.5436 1.77949C70.3827 1.63439 70.1409 1.65014 69.9958 1.79524C69.8507 1.94034 69.8665 2.19791 70.0115 2.343C70.7708 3.05161 71.4794 3.79288 72.1408 4.56786L72.1408 4.56784Z" fill="#355C7B"/>
<path d="M39.2152 15.3859C39.4413 15.3859 39.6021 15.2082 39.6021 14.9833V14.6121C39.6021 13.7415 39.6831 12.854 39.8439 11.9677C39.8766 11.7585 39.7472 11.5481 39.5211 11.5166C39.3119 11.4683 39.1016 11.6134 39.0701 11.8394C38.9092 12.7742 38.8125 13.71 38.8125 14.6289V15.0159C38.8282 15.2251 39.006 15.386 39.2152 15.386V15.3859Z" fill="#355C7B"/>
<path d="M43.3084 3.8566C43.4209 3.8566 43.5345 3.80823 43.6144 3.7115C44.2432 2.90501 44.9203 2.13115 45.6458 1.42142C45.8066 1.27632 45.8066 1.01875 45.6615 0.873655C45.5164 0.71281 45.2746 0.71281 45.1138 0.857907C44.3557 1.58339 43.6459 2.38988 43.0014 3.22786C42.8721 3.40558 42.9047 3.6474 43.0655 3.77563C43.1319 3.84086 43.2117 3.85661 43.3085 3.85661L43.3084 3.8566Z" fill="#355C7B"/>
<path d="M67.6421 0.406966C67.7062 0.455332 67.7872 0.487951 67.8682 0.487951C67.9807 0.487951 68.11 0.439583 68.1741 0.327105C68.3035 0.149387 68.2709 -0.0924344 68.0931 -0.220658C67.2552 -0.83367 66.3677 -1.41406 65.4487 -1.9461C65.271 -2.05858 65.0292 -1.99447 64.9167 -1.801C64.8042 -1.62328 64.8683 -1.38146 65.0618 -1.26896C65.965 -0.753792 66.8187 -0.189155 67.6421 0.406983L67.6421 0.406966Z" fill="#355C7B"/>
<path d="M77.5932 23.1434C77.3997 23.2244 77.303 23.4662 77.3839 23.6597C77.4481 23.8048 77.5932 23.9015 77.7383 23.9015C77.7866 23.9015 77.8507 23.8858 77.8991 23.8689C78.4795 23.6113 79.0284 23.3695 79.5604 23.1108C79.9474 22.9331 80.35 22.7396 80.7381 22.563C80.9315 22.4663 81.0125 22.2402 80.9158 22.0468C80.8191 21.8533 80.593 21.7723 80.3995 21.869C80.0126 22.0625 79.6256 22.2402 79.2387 22.4168C78.7213 22.6429 78.1578 22.9016 77.5932 23.1434L77.5932 23.1434Z" fill="#355C7B"/>
<path d="M60.5164 59.0044C61.3543 58.3599 62.1777 57.6816 62.9515 57.0371C63.1124 56.892 63.1293 56.6502 62.9999 56.4894C62.8548 56.3285 62.613 56.3116 62.4521 56.441C61.694 57.0855 60.8718 57.7469 60.0496 58.3925C59.8718 58.5219 59.8561 58.7637 59.9854 58.9403C60.0664 59.037 60.1789 59.0854 60.2914 59.0854C60.3555 59.0854 60.4522 59.0685 60.5163 59.0044H60.5164Z" fill="#355C7B"/>
<path d="M59.7911 28.2544C59.5819 28.2702 59.4199 28.4636 59.4368 28.6897C59.4525 28.8832 59.6302 29.044 59.8237 29.044H59.8563C60.8563 28.9473 61.9046 28.7864 62.9687 28.6087C63.178 28.5761 63.3231 28.3669 63.2916 28.1577C63.2589 27.9485 63.0497 27.8034 62.8405 27.8349C61.8068 27.9968 60.7743 28.1419 59.7912 28.2544H59.7911Z" fill="#355C7B"/>
<path d="M65.0315 55.0538C65.1282 55.0538 65.2249 55.0212 65.3059 54.9413C66.0798 54.2158 66.8221 53.4903 67.5476 52.748C67.6927 52.5871 67.6927 52.3453 67.5319 52.2002C67.371 52.0551 67.1292 52.0551 66.9841 52.2159C66.2744 52.9414 65.5331 53.6838 64.775 54.3924C64.6142 54.5375 64.6142 54.7794 64.7593 54.9402C64.8223 55.0054 64.919 55.0538 65.0315 55.0538H65.0315Z" fill="#355C7B"/>
<path d="M54.8556 62.5198C54.9365 62.6322 55.049 62.6975 55.1784 62.6975C55.2594 62.6975 55.3235 62.6817 55.3876 62.6334C56.2739 62.0687 57.1457 61.4726 57.9836 60.8753C58.1613 60.746 58.1928 60.5041 58.0803 60.3275C57.951 60.1498 57.7091 60.1183 57.5326 60.2308C56.6946 60.8112 55.8398 61.4085 54.9692 61.972C54.7915 62.0845 54.7431 62.3263 54.8556 62.5198H54.8556Z" fill="#355C7B"/>
<path d="M70.9665 47.5064C70.3535 48.3444 69.709 49.1677 69.0476 49.9247C68.9025 50.0856 68.9351 50.3274 69.096 50.4725C69.177 50.5366 69.2568 50.5692 69.3536 50.5692C69.466 50.5692 69.5797 50.5208 69.6438 50.4399C70.3051 49.666 70.9665 48.8269 71.5953 47.9732C71.7246 47.7955 71.6763 47.5536 71.5143 47.4254C71.3366 47.2972 71.0947 47.3298 70.9665 47.5064L70.9665 47.5064Z" fill="#355C7B"/>
<path d="M74.2051 42.266C73.7214 43.1849 73.222 44.0881 72.6732 44.943C72.5607 45.1207 72.6248 45.3625 72.8025 45.475C72.8666 45.5077 72.9319 45.5392 73.0117 45.5392C73.1411 45.5392 73.2693 45.475 73.3503 45.3457C73.898 44.4594 74.4143 43.5393 74.898 42.6203C74.9947 42.4269 74.9306 42.2008 74.7372 42.0883C74.5437 41.9915 74.3019 42.0725 74.2051 42.266V42.266Z" fill="#355C7B"/>
<path d="M78.2371 30.6243C78.0594 31.6243 77.8176 32.64 77.56 33.64C77.5116 33.8492 77.6241 34.0595 77.8344 34.1237C77.867 34.1394 77.8985 34.1394 77.9311 34.1394C78.1089 34.1394 78.254 34.0269 78.3023 33.8492C78.5768 32.8335 78.8018 31.801 78.9952 30.7852C79.0278 30.576 78.8985 30.3656 78.6893 30.3341C78.4632 30.2689 78.2697 30.414 78.2371 30.6243L78.2371 30.6243Z" fill="#355C7B"/>
<path d="M75.7373 39.9766C75.7856 39.9924 75.834 40.0093 75.8981 40.0093C76.0432 40.0093 76.1883 39.9283 76.2524 39.7674C76.672 38.8159 77.042 37.8159 77.3975 36.833C77.4616 36.6237 77.3649 36.4134 77.1557 36.3335C76.9464 36.2694 76.7361 36.3662 76.6562 36.5754C76.3177 37.5427 75.9465 38.51 75.5438 39.4615C75.4471 39.6707 75.5438 39.8968 75.7373 39.9766H75.7373Z" fill="#355C7B"/>
<path d="M75.2231 24.5456C75.1421 24.3521 74.9171 24.2554 74.7236 24.3195C73.7889 24.6907 72.8205 25.045 71.8217 25.4004C71.6125 25.4646 71.5158 25.6906 71.5799 25.8999C71.6282 26.0607 71.7891 26.1574 71.9511 26.1574C71.9994 26.1574 72.032 26.1574 72.0804 26.1417C73.0961 25.7874 74.0803 25.4162 75.0149 25.045C75.2072 24.9809 75.304 24.7548 75.223 24.5456H75.2231Z" fill="#355C7B"/>
<path d="M6.49784 71.1612C7.14235 71.1612 12.9957 63.9691 12.9957 60.7928C12.9957 57.2124 10.0767 54.2949 6.49784 54.2949C2.91864 54.2949 0 57.2139 0 60.7928C0 63.9691 5.85341 71.1612 6.49784 71.1612ZM2.1933 59.2934C2.61284 57.9875 3.69265 56.9066 4.99855 56.4882C8.64282 55.3105 11.9643 58.6489 10.7877 62.2774C10.3682 63.5833 9.28839 64.6642 7.98249 65.0826C4.35377 66.2591 1.03229 62.9376 2.1933 59.2934Z" fill="#355C7B"/>
<path d="M6.49751 74.2744C5.5628 74.2744 4.80469 74.6614 4.80469 75.1293C4.80469 75.5972 5.5628 75.9841 6.49751 75.9841C7.43221 75.9841 8.19032 75.5972 8.19032 75.1293C8.19145 74.6614 7.43334 74.2744 6.49751 74.2744Z" fill="#355C7B"/>
</svg>
