<svg width="248" height="238" viewBox="0 0 248 238" fill="none" xmlns="http://www.w3.org/2000/svg">
<path d="M97.1756 75.6551C97.2927 75.6932 97.4097 75.734 97.4887 75.734C97.878 75.734 98.2292 75.4999 98.3871 75.1106C99.2065 72.8483 100.26 70.5833 101.472 68.3973C101.744 67.929 101.55 67.3819 101.12 67.1096C100.69 66.8374 100.105 66.9925 99.8326 67.4608C98.5449 69.7231 97.4914 72.1051 96.593 74.446C96.4324 74.9524 96.6666 75.4996 97.1756 75.6548L97.1756 75.6551Z" fill="#3AA1FF"/>
<path d="M78.6732 229.501C78.7522 229.501 78.8284 229.501 78.9455 229.463C81.3657 228.76 83.7858 228.058 86.2032 227.277C86.7096 227.121 86.9846 226.574 86.8267 226.106C86.6715 225.6 86.1243 225.365 85.656 225.483C83.2767 226.264 80.8565 226.966 78.4742 227.669C77.9679 227.824 77.6929 228.333 77.81 228.839C77.8944 229.228 78.2456 229.501 78.673 229.501H78.6732Z" fill="#3AA1FF"/>
<path d="M93.0375 224.894C93.1546 224.894 93.2335 224.894 93.3506 224.856C95.7299 223.998 98.0738 223.1 100.415 222.164C100.884 221.968 101.118 221.423 100.922 220.955C100.726 220.487 100.181 220.252 99.7129 220.448C97.3716 221.385 95.0304 222.283 92.6893 223.141C92.1829 223.337 91.9488 223.843 92.104 224.35C92.2973 224.66 92.6485 224.894 93.0377 224.894H93.0375Z" fill="#3AA1FF"/>
<path d="M64.0369 233.132H64.2329C66.6912 232.626 69.1495 232.04 71.6106 231.455C72.1169 231.338 72.43 230.832 72.3129 230.323C72.1958 229.816 71.6487 229.503 71.1804 229.62C68.7602 230.206 66.3019 230.791 63.8815 231.297C63.3752 231.414 63.0621 231.921 63.141 232.43C63.2173 232.819 63.6093 233.132 64.0367 233.132H64.0369Z" fill="#3AA1FF"/>
<path d="M49.1731 235.668H49.2902C51.7893 235.317 54.2857 234.928 56.7849 234.498C57.2913 234.419 57.6425 233.912 57.5662 233.406C57.4873 232.9 57.019 232.548 56.4746 232.625C54.0163 233.055 51.5171 233.444 49.0586 233.757C48.5523 233.836 48.201 234.304 48.2392 234.811C48.3154 235.355 48.7047 235.668 49.1729 235.668H49.1731Z" fill="#3AA1FF"/>
<path d="M105.254 113.554C106.152 114.373 107.165 115.193 108.18 115.933C108.335 116.05 108.531 116.129 108.727 116.129C109 116.129 109.313 116.012 109.509 115.74C109.822 115.31 109.705 114.725 109.313 114.414C108.338 113.712 107.402 112.971 106.541 112.19C105.605 111.333 104.706 110.434 103.887 109.536C103.536 109.146 102.95 109.106 102.561 109.457C102.172 109.808 102.131 110.393 102.482 110.783C103.302 111.719 104.238 112.656 105.254 113.554L105.254 113.554Z" fill="#3AA1FF"/>
<path d="M119.736 212.134C119.891 212.447 120.242 212.64 120.555 212.64C120.71 212.64 120.868 212.602 120.985 212.523C123.21 211.315 125.434 210.103 127.582 208.816C128.05 208.543 128.167 207.958 127.933 207.528C127.661 207.06 127.075 206.943 126.645 207.177C124.5 208.464 122.314 209.676 120.09 210.846C119.657 211.121 119.502 211.666 119.736 212.134V212.134Z" fill="#3AA1FF"/>
<path d="M34.1824 237.153H34.2205C36.7196 236.998 39.2542 236.802 41.7912 236.568C42.2976 236.53 42.6896 236.062 42.6488 235.553C42.6107 235.046 42.1424 234.616 41.6334 234.695C39.1343 234.929 36.6378 235.163 34.1386 235.28C33.6323 235.318 33.2402 235.749 33.2402 236.296C33.2457 236.761 33.6758 237.153 34.1822 237.153H34.1824Z" fill="#3AA1FF"/>
<path d="M129.103 45.562C129.182 45.562 129.258 45.562 129.337 45.5239C131.757 44.8597 134.177 44.4704 136.557 44.3152C137.063 44.2771 137.455 43.8469 137.455 43.2998C137.417 42.7934 136.987 42.4422 136.44 42.4014C133.902 42.5565 131.365 42.9867 128.828 43.6891C128.321 43.8443 128.046 44.3533 128.163 44.8597C128.324 45.2898 128.675 45.5621 129.103 45.5621L129.103 45.562Z" fill="#3AA1FF"/>
<path d="M122.113 122.293C122.192 122.331 122.268 122.331 122.347 122.331C122.777 122.331 123.166 122.059 123.245 121.629C123.362 121.122 123.049 120.613 122.543 120.496C120.123 119.873 117.781 119.092 115.595 118.076C115.127 117.842 114.542 118.076 114.346 118.544C114.112 119.013 114.346 119.56 114.814 119.794C117.117 120.809 119.578 121.67 122.113 122.293L122.113 122.293Z" fill="#3AA1FF"/>
<path d="M106.153 218.692C106.308 219.043 106.659 219.239 107.011 219.239C107.128 219.239 107.283 219.201 107.4 219.16C109.703 218.145 112.006 217.053 114.268 215.958C114.737 215.724 114.933 215.177 114.698 214.709C114.464 214.241 113.917 214.045 113.449 214.279C111.187 215.37 108.922 216.424 106.659 217.439C106.153 217.676 105.957 218.223 106.153 218.692V218.692Z" fill="#3AA1FF"/>
<path d="M189.239 91.1053C189.318 91.1053 189.394 91.1053 189.473 91.0672C189.98 90.9502 190.293 90.403 190.138 89.8966C189.473 87.3975 188.695 84.98 187.758 82.6388C187.562 82.1325 187.018 81.8984 186.55 82.0916C186.081 82.2877 185.809 82.8321 186.002 83.3004C186.901 85.5627 187.641 87.9448 188.305 90.3651C188.42 90.8334 188.812 91.1056 189.239 91.1056L189.239 91.1053Z" fill="#3AA1FF"/>
<path d="M182.961 76.5534C183.116 76.8665 183.467 77.0598 183.78 77.0598C183.936 77.0598 184.093 77.0217 184.21 76.9427C184.679 76.7086 184.834 76.1233 184.6 75.655C183.429 73.3927 182.101 71.1659 180.696 69.0996C180.383 68.6695 179.797 68.5524 179.37 68.8655C178.94 69.1786 178.823 69.7639 179.136 70.1912C180.503 72.2222 181.79 74.3674 182.961 76.5534L182.961 76.5534Z" fill="#3AA1FF"/>
<path d="M158.763 120.147C158.88 120.577 159.269 120.849 159.661 120.849C159.74 120.849 159.816 120.849 159.895 120.811C162.275 120.226 164.736 119.561 167.232 118.821C167.738 118.666 168.013 118.157 167.855 117.65C167.7 117.144 167.191 116.869 166.685 117.027C164.226 117.767 161.806 118.394 159.465 118.979C158.959 119.134 158.646 119.64 158.763 120.147H158.763Z" fill="#3AA1FF"/>
<path d="M95.0651 97.2382C95.7294 99.7373 96.704 102.155 97.9535 104.42C98.1087 104.733 98.4599 104.926 98.773 104.926C98.9282 104.926 99.0861 104.888 99.2412 104.809C99.7095 104.575 99.8647 103.99 99.6305 103.522C98.4599 101.376 97.5615 99.1114 96.9381 96.7321C96.821 96.2257 96.3147 95.9507 95.7675 96.0678C95.223 96.223 94.9099 96.7321 95.0651 97.2384L95.0651 97.2382Z" fill="#3AA1FF"/>
<path d="M137.297 122.057H136.44C134.178 122.057 131.992 121.94 129.884 121.744C129.337 121.665 128.91 122.057 128.831 122.601C128.793 123.107 129.144 123.576 129.689 123.655C131.875 123.889 134.137 124.006 136.44 124.006H137.298C137.804 124.006 138.234 123.576 138.234 123.069C138.234 122.487 137.804 122.057 137.298 122.057L137.297 122.057Z" fill="#3AA1FF"/>
<path d="M189.866 97.664C190.256 100.084 190.531 102.543 190.724 105.08C190.762 105.586 191.154 105.978 191.661 105.978H191.74C192.246 105.94 192.638 105.51 192.597 104.963C192.442 102.388 192.129 99.8504 191.74 97.3923C191.661 96.886 191.192 96.5347 190.648 96.611C190.139 96.6899 189.788 97.1582 189.867 97.6645L189.866 97.664Z" fill="#3AA1FF"/>
<path d="M174.605 64.3022C174.801 64.5363 175.073 64.6153 175.307 64.6153C175.541 64.6153 175.737 64.5363 175.93 64.3811C176.32 64.03 176.361 63.4446 176.047 63.0554C174.409 61.1443 172.612 59.3094 170.739 57.5535C170.35 57.2023 169.764 57.2404 169.413 57.5916C169.062 57.9428 169.1 58.5662 169.451 58.9174C171.289 60.6325 173.004 62.4265 174.605 64.3022L174.605 64.3022Z" fill="#3AA1FF"/>
<path d="M94.9121 90.4852C95.4593 90.4852 95.8486 90.0551 95.8486 89.5106V88.6122C95.8486 86.5051 96.0446 84.3572 96.4339 82.212C96.5129 81.7056 96.1998 81.1965 95.6526 81.1203C95.1462 81.0032 94.6372 81.3544 94.5609 81.9016C94.1716 84.1639 93.9375 86.4289 93.9375 88.6531V89.5896C93.9756 90.096 94.4058 90.4853 94.9121 90.4853V90.4852Z" fill="#3AA1FF"/>
<path d="M104.821 62.581C105.093 62.581 105.368 62.464 105.561 62.2298C107.083 60.2779 108.722 58.4049 110.478 56.6871C110.867 56.3359 110.867 55.7126 110.516 55.3614C110.165 54.9721 109.58 54.9721 109.19 55.3233C107.356 57.0792 105.638 59.0311 104.078 61.0593C103.765 61.4894 103.844 62.0747 104.233 62.3851C104.394 62.5429 104.587 62.5811 104.821 62.5811L104.821 62.581Z" fill="#3AA1FF"/>
<path d="M115.597 52.12C115.793 52.12 115.986 52.041 116.144 51.924C118.172 50.4811 120.32 49.1907 122.465 48.1371C122.934 47.903 123.13 47.3558 122.895 46.8876C122.661 46.4193 122.114 46.2233 121.646 46.4574C119.384 47.5491 117.157 48.8776 115.05 50.3994C114.619 50.7124 114.543 51.2978 114.815 51.7251C115.011 52.0028 115.325 52.1199 115.597 52.1199V52.12Z" fill="#3AA1FF"/>
<path d="M163.719 54.2314C163.874 54.3485 164.07 54.4274 164.266 54.4274C164.538 54.4274 164.851 54.3104 165.006 54.0382C165.319 53.608 165.24 53.0227 164.81 52.7124C162.782 51.2287 160.634 49.824 158.41 48.5363C157.98 48.2641 157.395 48.4192 157.122 48.8875C156.85 49.3176 157.005 49.9029 157.473 50.1752C159.66 51.422 161.726 52.7886 163.719 54.2315L163.719 54.2314Z" fill="#3AA1FF"/>
<path d="M227.494 88.8475C227.69 88.8475 227.883 88.8094 228.041 88.6923C230.11 87.2495 232.138 85.7658 234.169 84.244C234.599 83.9309 234.675 83.3456 234.365 82.9182C234.052 82.4881 233.467 82.4119 233.039 82.7222C231.011 84.2059 228.98 85.6896 226.952 87.1324C226.522 87.4455 226.405 88.0309 226.718 88.4582C226.909 88.7304 227.219 88.8475 227.494 88.8475L227.494 88.8475Z" fill="#3AA1FF"/>
<path d="M239.593 79.8713C239.789 79.8713 240.023 79.7923 240.178 79.6753C242.168 78.1153 244.12 76.5146 246.072 74.9139C246.461 74.6008 246.54 73.9773 246.189 73.5881C245.876 73.1988 245.253 73.1199 244.863 73.4711C242.952 75.0718 241 76.6726 239.01 78.1943C238.621 78.5074 238.542 79.0927 238.855 79.5201C239.046 79.7542 239.318 79.8713 239.593 79.8713H239.593Z" fill="#3AA1FF"/>
<path d="M214.886 97.1206C215.042 97.1206 215.238 97.0825 215.393 97.0035C217.538 95.6777 219.686 94.3492 221.793 92.9445C222.223 92.6722 222.34 92.0869 222.065 91.6187C221.793 91.1886 221.208 91.0715 220.778 91.3465C218.671 92.7131 216.563 94.0797 214.456 95.3674C214.026 95.6396 213.871 96.225 214.143 96.6551C214.263 96.9654 214.573 97.1206 214.886 97.1206L214.886 97.1206Z" fill="#3AA1FF"/>
<path d="M201.77 104.535C201.925 104.535 202.083 104.497 202.2 104.418C204.424 103.248 206.648 102.039 208.835 100.789C209.303 100.517 209.458 99.97 209.186 99.5017C208.913 99.0335 208.366 98.8783 207.898 99.1505C205.712 100.4 203.526 101.571 201.302 102.741C200.834 102.975 200.678 103.561 200.912 104.029C201.106 104.38 201.419 104.535 201.77 104.535L201.77 104.535Z" fill="#3AA1FF"/>
<path d="M187.799 109.261C187.33 109.457 187.096 110.042 187.292 110.51C187.447 110.861 187.799 111.095 188.15 111.095C188.267 111.095 188.422 111.057 188.539 111.016C189.944 110.393 191.272 109.808 192.56 109.182C193.496 108.751 194.471 108.283 195.41 107.856C195.878 107.622 196.074 107.075 195.84 106.606C195.606 106.138 195.059 105.942 194.591 106.176C193.654 106.644 192.718 107.075 191.781 107.502C190.529 108.049 189.165 108.675 187.799 109.26L187.799 109.261Z" fill="#3AA1FF"/>
<path d="M146.469 196.056C148.498 194.496 150.49 192.854 152.363 191.295C152.753 190.943 152.793 190.358 152.48 189.969C152.129 189.58 151.544 189.539 151.155 189.852C149.32 191.412 147.33 193.012 145.34 194.575C144.909 194.888 144.871 195.473 145.184 195.901C145.38 196.135 145.653 196.252 145.925 196.252C146.08 196.252 146.314 196.211 146.469 196.056H146.469Z" fill="#3AA1FF"/>
<path d="M144.714 121.631C144.208 121.669 143.816 122.137 143.856 122.685C143.895 123.153 144.325 123.542 144.793 123.542H144.872C147.292 123.308 149.829 122.919 152.405 122.489C152.911 122.41 153.263 121.903 153.186 121.397C153.107 120.891 152.601 120.539 152.095 120.616C149.593 121.008 147.094 121.359 144.714 121.631H144.714Z" fill="#3AA1FF"/>
<path d="M157.398 186.493C157.632 186.493 157.866 186.414 158.062 186.221C159.935 184.465 161.732 182.709 163.488 180.913C163.839 180.523 163.839 179.938 163.45 179.587C163.061 179.236 162.475 179.236 162.124 179.625C160.406 181.381 158.612 183.178 156.777 184.893C156.388 185.244 156.388 185.829 156.739 186.218C156.892 186.376 157.126 186.493 157.398 186.493H157.398Z" fill="#3AA1FF"/>
<path d="M143.89 44.7044C146.27 45.0937 148.652 45.7961 150.914 46.7326C151.031 46.7708 151.148 46.8116 151.265 46.8116C151.616 46.8116 151.968 46.5775 152.123 46.2263C152.319 45.758 152.085 45.2109 151.616 44.9767C149.196 43.9613 146.7 43.2589 144.2 42.8315C143.694 42.7144 143.185 43.1037 143.109 43.6128C143.03 44.1573 143.381 44.6255 143.89 44.7045L143.89 44.7044Z" fill="#3AA1FF"/>
<path d="M132.767 204.565C132.963 204.838 133.236 204.996 133.549 204.996C133.745 204.996 133.9 204.957 134.055 204.84C136.2 203.474 138.31 202.031 140.338 200.585C140.768 200.272 140.844 199.687 140.572 199.26C140.259 198.829 139.674 198.753 139.246 199.025C137.218 200.43 135.149 201.876 133.042 203.24C132.612 203.512 132.495 204.097 132.767 204.565H132.767Z" fill="#3AA1FF"/>
<path d="M171.761 168.227C170.277 170.255 168.717 172.248 167.117 174.08C166.765 174.469 166.844 175.055 167.234 175.406C167.43 175.561 167.623 175.64 167.857 175.64C168.129 175.64 168.404 175.523 168.559 175.327C170.16 173.454 171.761 171.423 173.283 169.357C173.596 168.927 173.479 168.341 173.087 168.031C172.657 167.721 172.071 167.8 171.761 168.227L171.761 168.227Z" fill="#3AA1FF"/>
<path d="M179.601 155.543C178.43 157.767 177.222 159.953 175.893 162.022C175.621 162.452 175.776 163.037 176.206 163.31C176.362 163.389 176.519 163.465 176.713 163.465C177.026 163.465 177.336 163.31 177.532 162.997C178.858 160.851 180.107 158.625 181.278 156.4C181.512 155.932 181.357 155.385 180.889 155.113C180.421 154.879 179.835 155.075 179.601 155.543V155.543Z" fill="#3AA1FF"/>
<path d="M189.359 127.367C188.929 129.787 188.344 132.245 187.72 134.665C187.603 135.172 187.875 135.681 188.385 135.836C188.464 135.874 188.54 135.874 188.619 135.874C189.049 135.874 189.4 135.602 189.517 135.172C190.181 132.714 190.726 130.214 191.194 127.756C191.273 127.249 190.96 126.74 190.454 126.664C189.906 126.506 189.438 126.857 189.359 127.366L189.359 127.367Z" fill="#3AA1FF"/>
<path d="M191.86 111.602C191.313 111.602 190.923 111.991 190.885 112.538C190.847 114.997 190.689 117.534 190.417 119.992C190.379 120.498 190.73 120.967 191.274 121.045H191.392C191.86 121.045 192.29 120.694 192.328 120.188C192.6 117.651 192.758 115.113 192.796 112.576C192.796 112.07 192.366 111.602 191.86 111.602L191.86 111.602Z" fill="#3AA1FF"/>
<path d="M183.31 150.003C183.427 150.041 183.544 150.081 183.699 150.081C184.051 150.081 184.402 149.885 184.557 149.496C185.572 147.193 186.468 144.773 187.328 142.394C187.483 141.887 187.249 141.378 186.743 141.185C186.237 141.03 185.728 141.264 185.534 141.77C184.715 144.112 183.816 146.453 182.842 148.756C182.608 149.262 182.842 149.809 183.31 150.003H183.31Z" fill="#3AA1FF"/>
<path d="M182.062 112.654C181.866 112.186 181.322 111.952 180.854 112.107C178.591 113.006 176.247 113.863 173.83 114.723C173.324 114.879 173.089 115.426 173.245 115.932C173.362 116.321 173.751 116.556 174.143 116.556C174.26 116.556 174.339 116.556 174.456 116.517C176.914 115.66 179.296 114.761 181.558 113.863C182.024 113.708 182.258 113.161 182.062 112.654H182.062Z" fill="#3AA1FF"/>
<path d="M15.7268 225.48C17.2867 225.48 31.4536 208.073 31.4536 200.385C31.4536 191.719 24.3889 184.658 15.7268 184.658C7.06403 184.658 0 191.723 0 200.385C0 208.073 14.1671 225.48 15.7268 225.48ZM5.30848 196.756C6.32389 193.595 8.93736 190.979 12.0981 189.967C20.9183 187.116 28.9573 195.196 26.1097 203.978C25.0943 207.139 22.4808 209.755 19.3201 210.768C10.5375 213.615 2.49848 205.576 5.30848 196.756Z" fill="#3AA1FF"/>
<path d="M15.7261 233.014C13.4638 233.014 11.6289 233.95 11.6289 235.083C11.6289 236.215 13.4638 237.152 15.7261 237.152C17.9883 237.152 19.8232 236.215 19.8232 235.083C19.8259 233.95 17.9911 233.014 15.7261 233.014Z" fill="#3AA1FF"/>
</svg>
