<svg width="102" height="119" viewBox="0 0 102 119" fill="none" xmlns="http://www.w3.org/2000/svg">
<path d="M48.5878 37.827C48.6463 37.8461 48.7049 37.8665 48.7443 37.8665C48.939 37.8665 49.1146 37.7494 49.1935 37.5548C49.6032 36.4236 50.13 35.2912 50.7357 34.1981C50.8719 33.964 50.7752 33.6904 50.5601 33.5543C50.3451 33.4182 50.0524 33.4958 49.9163 33.7299C49.2724 34.861 48.7457 36.0521 48.2965 37.2225C48.2162 37.4757 48.3333 37.7493 48.5878 37.8269L48.5878 37.827Z" fill="#3AA1FF"/>
<path d="M39.3356 114.749C39.3751 114.749 39.4132 114.749 39.4718 114.73C40.6818 114.379 41.8919 114.028 43.1006 113.637C43.3538 113.56 43.4912 113.286 43.4123 113.052C43.3347 112.799 43.0611 112.682 42.827 112.74C41.6373 113.131 40.4273 113.482 39.2361 113.833C38.983 113.911 38.8455 114.166 38.904 114.419C38.9462 114.613 39.1218 114.749 39.3355 114.749H39.3356Z" fill="#3AA1FF"/>
<path d="M46.5178 112.446C46.5763 112.446 46.6158 112.446 46.6743 112.427C47.864 111.998 49.0359 111.549 50.2066 111.081C50.4407 110.983 50.5578 110.711 50.4598 110.476C50.3618 110.242 50.0896 110.125 49.8554 110.223C48.6848 110.691 47.5142 111.141 46.3437 111.569C46.0905 111.667 45.9734 111.921 46.051 112.174C46.1477 112.329 46.3233 112.446 46.5179 112.446H46.5178Z" fill="#3AA1FF"/>
<path d="M32.0184 116.565H32.1164C33.3456 116.312 34.5747 116.019 35.8052 115.727C36.0584 115.668 36.2149 115.415 36.1564 115.16C36.0979 114.907 35.8243 114.751 35.5902 114.809C34.3801 115.102 33.151 115.394 31.9408 115.648C31.6876 115.706 31.531 115.959 31.5705 116.214C31.6086 116.408 31.8046 116.565 32.0184 116.565H32.0184Z" fill="#3AA1FF"/>
<path d="M24.5856 117.833H24.6441C25.8936 117.657 27.1419 117.462 28.3914 117.247C28.6446 117.208 28.8202 116.955 28.7821 116.702C28.7426 116.448 28.5085 116.273 28.2363 116.311C27.0071 116.526 25.7576 116.721 24.5283 116.877C24.2751 116.917 24.0995 117.151 24.1186 117.404C24.1567 117.676 24.3514 117.833 24.5855 117.833H24.5856Z" fill="#3AA1FF"/>
<path d="M52.6268 56.7759C53.076 57.1857 53.5823 57.5954 54.09 57.9656C54.1676 58.0241 54.2656 58.0636 54.3636 58.0636C54.4997 58.0636 54.6563 58.0051 54.7543 57.869C54.9108 57.6539 54.8523 57.3613 54.6563 57.2061C54.169 56.8549 53.7007 56.4847 53.2706 56.094C52.8023 55.6653 52.3532 55.2161 51.9434 54.7669C51.7678 54.5723 51.4752 54.5518 51.2806 54.7274C51.0859 54.903 51.0655 55.1957 51.2411 55.3903C51.6508 55.8586 52.119 56.3268 52.6268 56.776L52.6268 56.7759Z" fill="#3AA1FF"/>
<path d="M59.8672 106.066C59.9448 106.222 60.1203 106.319 60.2769 106.319C60.3545 106.319 60.4334 106.3 60.492 106.26C61.604 105.656 62.7161 105.05 63.79 104.406C64.0242 104.27 64.0827 103.978 63.9656 103.763C63.8295 103.528 63.5368 103.47 63.3218 103.587C62.2492 104.231 61.1562 104.837 60.0441 105.422C59.8277 105.559 59.7501 105.832 59.8672 106.066V106.066Z" fill="#3AA1FF"/>
<path d="M17.0902 118.575H17.1093C18.3588 118.497 19.6261 118.399 20.8946 118.282C21.1478 118.263 21.3438 118.029 21.3234 117.774C21.3043 117.521 21.0702 117.306 20.8156 117.346C19.5661 117.463 18.3179 117.58 17.0683 117.638C16.8152 117.657 16.6191 117.872 16.6191 118.146C16.6219 118.379 16.8369 118.575 17.0901 118.575H17.0902Z" fill="#3AA1FF"/>
<path d="M64.5515 22.7805C64.591 22.7805 64.6291 22.7805 64.6686 22.7615C65.8786 22.4293 67.0887 22.2347 68.2782 22.1571C68.5314 22.138 68.7274 21.923 68.7274 21.6494C68.7084 21.3962 68.4933 21.2206 68.2197 21.2002C66.9511 21.2778 65.6825 21.4928 64.4139 21.844C64.1607 21.9216 64.0232 22.1762 64.0817 22.4293C64.1621 22.6444 64.3377 22.7805 64.5514 22.7805L64.5515 22.7805Z" fill="#3AA1FF"/>
<path d="M61.0563 61.1456C61.0958 61.1646 61.1339 61.1646 61.1733 61.1646C61.3884 61.1646 61.5831 61.0285 61.6225 60.8135C61.6811 60.5603 61.5245 60.3058 61.2714 60.2472C60.0613 59.9355 58.8907 59.5449 57.7977 59.0371C57.5635 58.9201 57.2709 59.0371 57.1729 59.2713C57.0558 59.5054 57.1729 59.779 57.407 59.896C58.5585 60.4037 59.789 60.8339 61.0564 61.1456L61.0563 61.1456Z" fill="#3AA1FF"/>
<path d="M53.0765 109.345C53.1541 109.52 53.3297 109.618 53.5053 109.618C53.5638 109.618 53.6414 109.599 53.6999 109.579C54.8514 109.071 56.003 108.525 57.1341 107.978C57.3682 107.861 57.4662 107.588 57.3492 107.353C57.2321 107.119 56.9585 107.021 56.7244 107.138C55.5933 107.684 54.4608 108.211 53.3297 108.719C53.0765 108.837 52.9785 109.111 53.0765 109.345V109.345Z" fill="#3AA1FF"/>
<path d="M94.6184 45.5522C94.6579 45.5522 94.696 45.5522 94.7354 45.5332C94.9886 45.4747 95.1452 45.2011 95.0676 44.9479C94.7354 43.6984 94.3461 42.4896 93.8779 41.319C93.7799 41.0659 93.5077 40.9488 93.2735 41.0455C93.0394 41.1435 92.9033 41.4157 92.9999 41.6498C93.4491 42.7809 93.8194 43.972 94.1515 45.1821C94.2087 45.4163 94.4047 45.5524 94.6183 45.5524L94.6184 45.5522Z" fill="#3AA1FF"/>
<path d="M91.4792 38.2762C91.5568 38.4327 91.7324 38.5294 91.8889 38.5294C91.9665 38.5294 92.0455 38.5103 92.104 38.4708C92.3381 38.3538 92.4157 38.0611 92.2986 37.827C91.7133 36.6959 91.0491 35.5824 90.3467 34.5493C90.1902 34.3342 89.8975 34.2757 89.6838 34.4323C89.4688 34.5888 89.4102 34.8815 89.5668 35.0951C90.2501 36.1106 90.8939 37.1832 91.4792 38.2762L91.4792 38.2762Z" fill="#3AA1FF"/>
<path d="M79.3794 60.0724C79.438 60.2875 79.6326 60.4236 79.8286 60.4236C79.8681 60.4236 79.9062 60.4236 79.9457 60.4045C81.1354 60.1119 82.3658 59.7797 83.6139 59.4095C83.8671 59.3319 84.0046 59.0774 83.9256 58.8242C83.848 58.571 83.5935 58.4335 83.3403 58.5125C82.1112 58.8827 80.9011 59.1958 79.7306 59.4884C79.4775 59.566 79.3209 59.8192 79.3795 60.0724H79.3794Z" fill="#3AA1FF"/>
<path d="M47.5316 48.6181C47.8637 49.8677 48.351 51.0764 48.9758 52.209C49.0534 52.3655 49.2289 52.4622 49.3855 52.4622C49.4631 52.4622 49.542 52.4431 49.6196 52.4036C49.8537 52.2866 49.9313 51.9939 49.8143 51.7598C49.229 50.6872 48.7798 49.5547 48.4681 48.365C48.4095 48.1119 48.1564 47.9744 47.8828 48.0329C47.6105 48.1105 47.454 48.365 47.5316 48.6182L47.5316 48.6181Z" fill="#3AA1FF"/>
<path d="M68.6487 61.0278H68.2199C67.0888 61.0278 65.9958 60.9693 64.9422 60.8713C64.6686 60.8318 64.455 61.0278 64.4155 61.3C64.3964 61.5532 64.572 61.7873 64.8443 61.8268C65.9373 61.9439 67.0684 62.0024 68.2199 62.0024H68.6487C68.9019 62.0024 69.117 61.7873 69.117 61.5341C69.117 61.2428 68.9019 61.0278 68.6487 61.0278L68.6487 61.0278Z" fill="#3AA1FF"/>
<path d="M94.9313 48.8315C95.1259 50.0416 95.2634 51.2707 95.3601 52.5395C95.3791 52.7926 95.5751 52.9887 95.8283 52.9887H95.8678C96.121 52.9696 96.317 52.7545 96.2966 52.481C96.219 51.1933 96.0625 49.9247 95.8678 48.6957C95.8283 48.4425 95.5942 48.2669 95.322 48.305C95.0674 48.3445 94.8918 48.5786 94.9313 48.8318L94.9313 48.8315Z" fill="#3AA1FF"/>
<path d="M87.3003 32.1511C87.3983 32.2682 87.5344 32.3077 87.6515 32.3077C87.7686 32.3077 87.8666 32.2682 87.9632 32.1906C88.1578 32.015 88.1783 31.7224 88.0217 31.5277C87.2023 30.5722 86.3039 29.6548 85.3675 28.7768C85.1728 28.6013 84.8802 28.6203 84.7046 28.7959C84.529 28.9715 84.548 29.2832 84.7236 29.4588C85.6424 30.3163 86.5 31.2133 87.3003 32.1512L87.3003 32.1511Z" fill="#3AA1FF"/>
<path d="M47.456 45.2415C47.7296 45.2415 47.9243 45.0264 47.9243 44.7542V44.305C47.9243 43.2515 48.0223 42.1775 48.2169 41.1049C48.2564 40.8518 48.0999 40.5972 47.8263 40.5591C47.5731 40.5006 47.3186 40.6762 47.2805 40.9498C47.0858 42.0809 46.9688 43.2134 46.9688 44.3255V44.7937C46.9878 45.0469 47.2029 45.2415 47.456 45.2415V45.2415Z" fill="#3AA1FF"/>
<path d="M52.4095 31.2905C52.5456 31.2905 52.6831 31.2319 52.7797 31.1149C53.5406 30.1389 54.3601 29.2024 55.238 28.3436C55.4326 28.168 55.4326 27.8563 55.2571 27.6807C55.0815 27.486 54.7888 27.486 54.5942 27.6616C53.6768 28.5396 52.8179 29.5155 52.0379 30.5296C51.8814 30.7447 51.9209 31.0373 52.1155 31.1925C52.1958 31.2714 52.2925 31.2905 52.4095 31.2905L52.4095 31.2905Z" fill="#3AA1FF"/>
<path d="M57.7984 26.0595C57.8964 26.0595 57.993 26.02 58.072 25.9615C59.086 25.24 60.16 24.5948 61.2326 24.0681C61.4667 23.951 61.5647 23.6774 61.4477 23.4433C61.3306 23.2092 61.057 23.1112 60.8229 23.2282C59.6917 23.774 58.5783 24.4383 57.5248 25.1992C57.3097 25.3557 57.2716 25.6484 57.4077 25.862C57.5057 26.0009 57.6623 26.0594 57.7984 26.0594V26.0595Z" fill="#3AA1FF"/>
<path d="M81.8573 27.1157C81.9349 27.1742 82.0329 27.2137 82.1309 27.2137C82.267 27.2137 82.4235 27.1552 82.5011 27.0191C82.6577 26.804 82.6182 26.5114 82.4031 26.3562C81.3891 25.6144 80.3151 24.912 79.203 24.2682C78.988 24.1321 78.6953 24.2096 78.5592 24.4438C78.4231 24.6588 78.5007 24.9515 78.7348 25.0876C79.8278 25.711 80.8609 26.3943 81.8573 27.1157L81.8573 27.1157Z" fill="#3AA1FF"/>
<path d="M100.883 52.2672C100.961 52.2672 101.04 52.2481 101.098 52.2087C102.21 51.6234 103.322 51.019 104.415 50.3942C104.649 50.2581 104.727 49.9845 104.591 49.7504C104.455 49.5163 104.181 49.4387 103.947 49.5748C102.854 50.1996 101.761 50.7849 100.649 51.3702C100.415 51.4872 100.337 51.7799 100.454 52.014C100.551 52.1896 100.707 52.2672 100.883 52.2672L100.883 52.2672Z" fill="#3AA1FF"/>
<path d="M93.8973 54.6298C93.6632 54.7278 93.5461 55.0204 93.6441 55.2546C93.7217 55.4301 93.8973 55.5472 94.0729 55.5472C94.1314 55.5472 94.209 55.5282 94.2676 55.5077C94.9699 55.196 95.6342 54.9034 96.278 54.5903C96.7462 54.3753 97.2335 54.1411 97.7031 53.9274C97.9372 53.8104 98.0352 53.5368 97.9182 53.3027C97.8011 53.0685 97.5275 52.9705 97.2934 53.0876C96.8251 53.3217 96.3569 53.5368 95.8887 53.7505C95.2625 54.0241 94.5806 54.3371 93.8973 54.6298L93.8973 54.6298Z" fill="#3AA1FF"/>
<path d="M73.2337 98.0265C74.2478 97.2465 75.2441 96.4257 76.1806 95.6458C76.3752 95.4702 76.3957 95.1775 76.2391 94.9829C76.0635 94.7883 75.7709 94.7679 75.5763 94.9244C74.6588 95.7044 73.6638 96.5047 72.6688 97.286C72.4537 97.4425 72.4347 97.7352 72.5912 97.9489C72.6892 98.0659 72.8253 98.1245 72.9614 98.1245C73.039 98.1245 73.1561 98.1041 73.2337 98.0265H73.2337Z" fill="#3AA1FF"/>
<path d="M72.356 60.8149C72.1028 60.834 71.9068 61.0681 71.9272 61.3417C71.9463 61.5758 72.1614 61.7705 72.3955 61.7705H72.435C73.6451 61.6534 74.9137 61.4587 76.2015 61.2437C76.4546 61.2042 76.6302 60.951 76.5921 60.6979C76.5526 60.4447 76.2995 60.2691 76.0463 60.3072C74.7954 60.5032 73.5458 60.6788 72.3561 60.8149H72.356Z" fill="#3AA1FF"/>
<path d="M78.6971 93.2457C78.8141 93.2457 78.9312 93.2063 79.0292 93.1096C79.9657 92.2317 80.864 91.3537 81.742 90.4554C81.9176 90.2607 81.9176 89.9681 81.7229 89.7925C81.5283 89.6169 81.2357 89.6169 81.0601 89.8115C80.2012 90.6895 79.3042 91.5879 78.3867 92.4454C78.1921 92.621 78.1921 92.9137 78.3677 93.1083C78.4439 93.1872 78.561 93.2457 78.6971 93.2457H78.6971Z" fill="#3AA1FF"/>
<path d="M71.9452 22.3522C73.1349 22.5469 74.3258 22.898 75.4569 23.3663C75.5155 23.3854 75.574 23.4058 75.6325 23.4058C75.8081 23.4058 75.9837 23.2887 76.0613 23.1131C76.1593 22.879 76.0423 22.6054 75.8081 22.4883C74.598 21.9806 73.3499 21.6295 72.1002 21.4157C71.847 21.3572 71.5925 21.5519 71.5544 21.8064C71.5149 22.0786 71.6905 22.3127 71.945 22.3522L71.9452 22.3522Z" fill="#3AA1FF"/>
<path d="M66.3836 102.281C66.4816 102.417 66.6178 102.496 66.7743 102.496C66.8723 102.496 66.9499 102.477 67.0275 102.419C68.1001 101.735 69.155 101.014 70.169 100.291C70.3841 100.135 70.4222 99.842 70.2861 99.6283C70.1295 99.4132 69.8369 99.3751 69.6232 99.5112C68.6091 100.214 67.5747 100.936 66.5211 101.618C66.3061 101.754 66.2475 102.047 66.3837 102.281H66.3836Z" fill="#3AA1FF"/>
<path d="M85.8795 84.112C85.1376 85.1261 84.3577 86.1225 83.5573 87.0385C83.3817 87.2332 83.4212 87.5258 83.6158 87.7014C83.7138 87.779 83.8105 87.8185 83.9275 87.8185C84.0637 87.8185 84.2011 87.7599 84.2787 87.6619C85.0791 86.7255 85.8795 85.71 86.6403 84.6769C86.7968 84.4618 86.7383 84.1692 86.5423 84.014C86.3272 83.8589 86.0346 83.8983 85.8794 84.112L85.8795 84.112Z" fill="#3AA1FF"/>
<path d="M89.7986 77.7704C89.2133 78.8825 88.6089 79.9755 87.9447 81.01C87.8086 81.2251 87.8861 81.5177 88.1012 81.6538C88.1788 81.6933 88.2577 81.7314 88.3544 81.7314C88.5109 81.7314 88.6661 81.6538 88.7641 81.4973C89.427 80.4247 90.0518 79.3113 90.6371 78.1992C90.7541 77.9651 90.6765 77.6915 90.4424 77.5554C90.2083 77.4383 89.9157 77.5363 89.7986 77.7704V77.7704Z" fill="#3AA1FF"/>
<path d="M94.6786 63.6828C94.4635 64.8928 94.1709 66.122 93.8592 67.3322C93.8006 67.5853 93.9368 67.8399 94.1913 67.9175C94.2308 67.9365 94.2689 67.9365 94.3084 67.9365C94.5234 67.9365 94.699 67.8004 94.7576 67.5853C95.0897 66.3562 95.3619 65.1067 95.596 63.8774C95.6355 63.6242 95.479 63.3697 95.2258 63.3316C94.9522 63.2526 94.7181 63.4282 94.6786 63.6827L94.6786 63.6828Z" fill="#3AA1FF"/>
<path d="M95.9279 55.7999C95.6543 55.7999 95.4596 55.9946 95.4406 56.2682C95.4216 57.4973 95.3426 58.7659 95.2065 59.995C95.1874 60.2481 95.363 60.4822 95.6353 60.5217H95.6938C95.9279 60.5217 96.143 60.3461 96.1621 60.0929C96.2982 58.8243 96.3771 57.5557 96.3962 56.2871C96.3962 56.0339 96.1811 55.7998 95.9279 55.7998L95.9279 55.7999Z" fill="#3AA1FF"/>
<path d="M91.6531 75.0007C91.7116 75.0198 91.7701 75.0402 91.8477 75.0402C92.0233 75.0402 92.1989 74.9422 92.2765 74.7475C92.7842 73.596 93.232 72.3859 93.6622 71.1964C93.7398 70.9432 93.6227 70.6887 93.3695 70.592C93.1164 70.5145 92.8618 70.6315 92.7652 70.8847C92.3554 72.0553 91.9063 73.2259 91.419 74.3773C91.3019 74.6305 91.419 74.904 91.6531 75.0007H91.6531Z" fill="#3AA1FF"/>
<path d="M91.0301 56.3265C90.9321 56.0924 90.6599 55.9753 90.4257 56.0529C89.2946 56.5021 88.1226 56.9308 86.914 57.361C86.6608 57.4386 86.5437 57.7122 86.6213 57.9653C86.6799 58.16 86.8745 58.2771 87.0705 58.2771C87.1291 58.2771 87.1685 58.2771 87.2271 58.258C88.4562 57.8292 89.6472 57.3801 90.7782 56.9309C91.011 56.8533 91.128 56.5797 91.03 56.3265H91.0301Z" fill="#3AA1FF"/>
<path d="M7.8633 112.738C8.64325 112.738 15.7266 104.035 15.7266 100.191C15.7266 95.8585 12.1943 92.3279 7.8633 92.3279C3.53197 92.3279 0 95.8602 0 100.191C0 104.035 7.08345 112.738 7.8633 112.738ZM2.6542 98.3768C3.16191 96.7964 4.46862 95.4884 6.04895 94.982C10.459 93.5569 14.4785 97.5968 13.0547 101.988C12.547 103.568 11.2403 104.876 9.65995 105.382C5.26868 106.806 1.24922 102.787 2.6542 98.3768Z" fill="#3AA1FF"/>
<path d="M7.863 116.505C6.73187 116.505 5.81445 116.973 5.81445 117.539C5.81445 118.106 6.73187 118.574 7.863 118.574C8.99413 118.574 9.91155 118.106 9.91155 117.539C9.91291 116.973 8.99549 116.505 7.863 116.505Z" fill="#3AA1FF"/>
</svg>
